<?xml version="1.0" standalone="no"?>
<!DOCTYPE svg PUBLIC "-//W3C//DTD SVG 20010904//EN"
 "http://www.w3.org/TR/2001/REC-SVG-20010904/DTD/svg10.dtd">
<svg version="1.0" xmlns="http://www.w3.org/2000/svg"
 width="175.000000pt" height="35.000000pt" viewBox="0 0 492.000000 120.000000"
 preserveAspectRatio="xMidYMid meet">

<g transform="translate(0.000000,120.000000) scale(0.100000,-0.100000)"
fill="#000000" stroke="none">
<path d="M4598 1059 c-16 -9 -18 -27 -18 -144 0 -74 -3 -135 -8 -135 -4 0 -13
9 -20 21 -7 11 -36 31 -65 45 -156 72 -368 -16 -423 -177 -24 -70 -24 -177 0
-247 44 -128 165 -217 295 -216 80 1 147 28 191 76 l30 32 0 -41 c0 -24 6 -46
15 -53 21 -17 61 -4 69 22 3 13 6 195 6 406 0 369 -1 383 -20 402 -23 23 -28
24 -52 9z m-155 -289 c46 -15 86 -49 110 -93 18 -35 22 -58 21 -142 0 -113
-11 -142 -68 -193 -108 -95 -281 -53 -346 85 -30 62 -32 171 -6 223 58 113
167 158 289 120z"/>
<path d="M990 1041 c-15 -29 -12 -87 6 -105 36 -36 84 -7 84 50 0 51 -15 74
-50 74 -19 0 -33 -7 -40 -19z"/>
<path d="M1918 1049 c-17 -9 -18 -40 -18 -412 0 -418 1 -427 41 -427 36 0 49
39 49 145 l0 101 35 34 35 34 24 -24 c12 -14 76 -85 141 -157 68 -77 125 -133
136 -133 16 0 49 24 49 36 0 21 -67 101 -247 294 l-32 35 120 110 c67 60 125
118 130 127 15 27 -6 58 -39 58 -22 0 -61 -32 -190 -156 l-162 -156 0 231 c0
218 -1 232 -20 251 -23 23 -28 24 -52 9z"/>
<path d="M272 1028 c-17 -17 -17 -779 0 -796 9 -9 88 -12 294 -12 303 0 309 1
302 52 l-3 23 -257 3 -258 2 0 358 c0 376 -1 382 -45 382 -12 0 -26 -5 -33
-12z"/>
<path d="M3565 1031 c-11 -5 -28 -18 -38 -29 -10 -10 -72 -154 -137 -318 -135
-335 -140 -361 -91 -416 l29 -33 268 -3 c291 -3 314 0 339 49 30 57 20 97 -96
386 -61 153 -117 292 -126 310 -23 50 -94 75 -148 54z m93 -65 c4 -6 28 -63
53 -126 l47 -114 -25 -33 c-56 -73 -205 -156 -301 -169 -52 -7 -52 -7 -43 17
43 115 166 407 174 418 24 29 78 33 95 7z"/>
<path d="M2527 1013 c-15 -18 -17 -53 -17 -392 0 -238 4 -379 10 -392 12 -21
50 -25 68 -7 8 8 12 50 12 124 l0 112 173 4 c155 3 177 6 224 27 181 81 216
329 66 461 -73 64 -111 73 -328 78 -178 3 -191 3 -208 -15z m389 -78 c139 -41
198 -211 112 -321 -12 -14 -44 -37 -72 -50 -47 -22 -64 -24 -203 -24 l-153 0
0 205 0 205 133 0 c88 0 150 -5 183 -15z"/>
<path d="M1449 870 c-62 -11 -120 -42 -157 -85 l-32 -36 0 50 c0 39 -4 53 -19
61 -27 14 -37 13 -55 -6 -14 -13 -16 -56 -16 -314 0 -258 2 -301 16 -314 19
-19 48 -21 62 -3 6 7 12 90 14 202 3 172 5 194 25 230 76 142 261 179 360 73
47 -50 53 -84 53 -292 0 -206 4 -226 49 -226 40 0 43 20 39 252 -3 207 -5 226
-25 264 -57 107 -187 167 -314 144z"/>
<path d="M990 840 c-7 -14 -10 -118 -8 -316 3 -310 4 -314 48 -314 44 0 45 4
48 308 2 179 -1 299 -7 315 -13 34 -64 38 -81 7z"/>
</g>
</svg>
